<svg width="24" height="24" viewBox="0 0 24 24" fill="none" xmlns="http://www.w3.org/2000/svg" class="css-1dvk2kn">
    <mask id="search_svg__a" style="mask-type: alpha;" maskUnits="userSpaceOnUse" x="0" y="0" width="24" height="24">
        <path
            fill-rule="evenodd"
            clip-rule="evenodd"
            d="M14.71 14h.79l4.99 5L19 20.49l-5-4.99v-.79l-.27-.28A6.471 6.471 0 019.5 16 6.5 6.5 0 1116 9.5c0 1.61-.59 3.09-1.57 4.23l.28.27zM5 9.5C5 11.99 7.01 14 9.5 14S14 11.99 14 9.5 11.99 5 9.5 5 5 7.01 5 9.5z"
            fill="#0A0A0A"
        ></path>
    </mask>
    <g mask="url(#search_svg__a)"><path fill="currentColor" d="M0 0h24v24H0z"></path></g>
</svg>
